<svg width="46" height="46" viewBox="0 0 46 46" fill="none" xmlns="http://www.w3.org/2000/svg">
<path d="M23.0563 39.1059C27.5305 39.1059 31.3104 37.531 34.3958 34.3811C37.4812 31.2313 39.0525 27.4264 39.1098 22.9665V6.89156H23.0402C18.575 6.94525 14.7683 8.51659 11.6202 11.6056C8.47039 14.691 6.89547 18.4708 6.89547 22.945C6.89547 27.4192 8.46681 31.2313 11.6095 34.3811C14.7522 37.531 18.5669 39.1059 23.0536 39.1059M20.3933 32.6899L30.6965 23.4658C31.033 23.1652 31.1287 22.8117 30.9837 22.4054C30.8406 21.9992 30.5345 21.7513 30.0656 21.6618L22.0013 20.929L26.8952 14.2337C26.9954 14.078 27.0393 13.908 27.0267 13.7237C27.0142 13.5393 26.9534 13.3756 26.8442 13.2324C26.6652 13.0427 26.4639 12.9568 26.2402 12.9747C26.0165 12.9926 25.8124 13.0767 25.6281 13.227L15.4269 22.4162C15.0904 22.7151 14.9857 23.0766 15.1128 23.5007C15.2417 23.9231 15.5396 24.179 16.0068 24.2685L24.0711 25.0014L19.2121 31.6966C19.1136 31.8523 19.0725 32.0223 19.0886 32.2067C19.1047 32.391 19.1772 32.5556 19.306 32.7006C19.4349 32.8456 19.6013 32.9172 19.8054 32.9154C20.0094 32.9136 20.2054 32.8384 20.3933 32.6899ZM23.0536 41.7904C20.6859 41.7904 18.455 41.3815 16.3611 40.5636C14.2672 39.7457 12.3889 38.6218 10.7263 37.1918L6.51695 41.3985C6.38451 41.5291 6.23418 41.6276 6.06595 41.6938C5.89951 41.7582 5.7268 41.7904 5.54783 41.7904C5.16842 41.7904 4.85075 41.6607 4.59483 41.4012C4.3389 41.1434 4.21094 40.8231 4.21094 40.4401C4.21094 40.2611 4.24315 40.0893 4.30758 39.9247C4.3738 39.7618 4.47223 39.6151 4.60288 39.4844L8.80953 35.2751C7.37778 33.6125 6.25386 31.7342 5.43777 29.6402C4.62167 27.5463 4.21273 25.3155 4.21094 22.9477C4.21094 17.7165 6.04179 13.2852 9.70348 9.65394C13.3652 6.02267 17.8125 4.20703 23.0456 4.20703H41.7943V22.9531C41.7943 28.1879 39.9787 32.6353 36.3474 36.2952C32.7179 39.9587 28.2876 41.7904 23.0563 41.7904" fill="#2F93FF"/>
</svg>
