<svg width="46" height="46" viewBox="0 0 46 46" fill="none" xmlns="http://www.w3.org/2000/svg">
<g clip-path="url(#clip0_563_54)">
<path d="M9.85837 31.3276C8.15842 30.9822 6.57831 30.1984 5.2748 29.0539C3.71242 27.6884 2.59004 25.8903 2.0496 23.8869C1.50916 21.8835 1.57492 19.7649 2.23858 17.7989C2.90223 15.8329 4.13397 14.1078 5.77803 12.8419C7.42209 11.5759 9.40463 10.8259 11.4749 10.6867C11.6178 10.6902 11.7586 10.6528 11.8809 10.5788C12.0031 10.5049 12.1017 10.3975 12.1649 10.2694C13.1137 7.52227 14.9753 5.18328 17.4396 3.64234C19.9039 2.10141 22.8218 1.45164 25.7071 1.80134C28.5923 2.15105 31.2706 3.4791 33.2954 5.56412C35.3201 7.64915 36.5691 10.3652 36.8341 13.2594C36.8564 13.4117 36.9218 13.5545 37.0225 13.6709C37.1232 13.7873 37.255 13.8725 37.4025 13.9166C39.4195 14.3906 41.2102 15.5482 42.4705 17.1929C43.7307 18.8375 44.3827 20.8677 44.3158 22.9386C44.2488 25.0095 43.467 26.9933 42.1031 28.5531C40.7393 30.1129 38.8775 31.1524 36.8341 31.4952" stroke="#2F93FF" stroke-width="3" stroke-linecap="round" stroke-linejoin="round"/>
<path d="M14.8789 36.4601C13.8997 36.2892 13.8997 34.8829 14.8789 34.7121C16.6129 34.4096 18.2175 33.5978 19.4885 32.3801C20.7594 31.1624 21.6391 29.5939 22.0155 27.8745L22.0812 27.6018C22.2947 26.6325 23.6715 26.6259 23.8916 27.5919L23.9639 27.9073C24.3546 29.6204 25.243 31.1798 26.5175 32.3894C27.7919 33.599 29.3956 34.4048 31.1267 34.7055C32.1092 34.8763 32.1092 36.2892 31.1267 36.4601C29.3956 36.7608 27.7919 37.5665 26.5175 38.7761C25.243 39.9857 24.3546 41.5451 23.9639 43.2582L23.8916 43.5736C23.6715 44.5396 22.2947 44.5331 22.0845 43.5638L22.022 43.2943C21.6455 41.5744 20.7653 40.0056 19.4937 38.7879C18.2221 37.5701 16.6167 36.7586 14.8822 36.4568L14.8789 36.4601Z" stroke="#2F93FF" stroke-width="3" stroke-linecap="round" stroke-linejoin="round"/>
</g>
<defs>
<clipPath id="clip0_563_54">
<rect width="46" height="46" fill="white"/>
</clipPath>
</defs>
</svg>
