<svg width="46" height="46" viewBox="0 0 46 46" fill="none" xmlns="http://www.w3.org/2000/svg">
<path d="M29.2727 6.27344C33.7091 6.27344 37.9637 8.03577 41.1007 11.1727C44.2377 14.3097 46 18.5644 46 23.0007C46 27.4371 44.2377 31.6917 41.1007 34.8287C37.9637 37.9657 33.7091 39.728 29.2727 39.728C24.8364 39.728 20.5817 37.9657 17.4448 34.8287C14.3078 31.6917 12.5455 27.4371 12.5455 23.0007C12.5455 18.5644 14.3078 14.3097 17.4448 11.1727C20.5817 8.03577 24.8364 6.27344 29.2727 6.27344ZM29.2727 10.4553C25.9455 10.4553 22.7545 11.777 20.4018 14.1297C18.049 16.4825 16.7273 19.6734 16.7273 23.0007C16.7273 26.328 18.049 29.519 20.4018 31.8717C22.7545 34.2244 25.9455 35.5462 29.2727 35.5462C32.6 35.5462 35.791 34.2244 38.1437 31.8717C40.4964 29.519 41.8182 26.328 41.8182 23.0007C41.8182 19.6734 40.4964 16.4825 38.1437 14.1297C35.791 11.777 32.6 10.4553 29.2727 10.4553ZM2.09091 35.5462C1.53637 35.5462 1.00453 35.3259 0.612413 34.9338C0.220291 34.5416 0 34.0098 0 33.4553C0 32.9007 0.220291 32.3689 0.612413 31.9768C1.00453 31.5846 1.53637 31.3643 2.09091 31.3643H10.0991C10.7473 32.8489 11.5836 34.2498 12.5455 35.5462H2.09091ZM4.18182 25.0916C3.62727 25.0916 3.09544 24.8713 2.70332 24.4792C2.3112 24.0871 2.09091 23.5553 2.09091 23.0007C2.09091 22.4462 2.3112 21.9143 2.70332 21.5222C3.09544 21.1301 3.62727 20.9098 4.18182 20.9098H8.46818L8.36364 23.0007L8.46818 25.0916H4.18182ZM6.27273 14.6371C5.71818 14.6371 5.18635 14.4168 4.79423 14.0247C4.40211 13.6325 4.18182 13.1007 4.18182 12.5462C4.18182 11.9916 4.40211 11.4598 4.79423 11.0677C5.18635 10.6755 5.71818 10.4553 6.27273 10.4553H12.5455C11.5836 11.7516 10.7473 13.1525 10.0991 14.6371H6.27273Z" fill="#2F93FF"/>
</svg>
