<?xml version="1.0" encoding="UTF-8"?>
<svg version="1.1" xmlns="http://www.w3.org/2000/svg" width="38" height="43">
<path d="M0 0 C4.43728151 -0.11586755 8.87417591 -0.18714058 13.3125 -0.25 C14.57513672 -0.28351562 15.83777344 -0.31703125 17.13867188 -0.3515625 C18.95141602 -0.37089844 18.95141602 -0.37089844 20.80078125 -0.390625 C21.91622314 -0.41157227 23.03166504 -0.43251953 24.1809082 -0.45410156 C27 0 27 0 28.86914062 1.60351562 C30.37070091 4.78557861 30.3392122 7.21987309 30.29296875 10.734375 C30.2784668 12.67763672 30.2784668 12.67763672 30.26367188 14.66015625 C30.23860783 16.02344354 30.21321302 17.38672479 30.1875 18.75 C30.17244518 20.12889184 30.15875817 21.50779935 30.14648438 22.88671875 C30.11111909 26.25820915 30.06175904 29.62890654 30 33 C25.46102295 33.02465392 20.92208457 33.04283789 16.38305664 33.05493164 C14.83780234 33.0599714 13.29255284 33.0668032 11.74731445 33.07543945 C9.53074971 33.08752076 7.31424782 33.09323173 5.09765625 33.09765625 C4.05545677 33.10539818 4.05545677 33.10539818 2.99220276 33.11329651 C1.3277067 33.11349277 -0.33665499 33.06189129 -2 33 C-3 32 -3 32 -3.11352539 29.31616211 C-3.10828857 28.14835205 -3.10305176 26.98054199 -3.09765625 25.77734375 C-3.09443359 24.51728516 -3.09121094 23.25722656 -3.08789062 21.95898438 C-3.07953403 20.61848891 -3.07106907 19.27799412 -3.0625 17.9375 C-3.0574866 16.59310058 -3.05292342 15.2486994 -3.04882812 13.90429688 C-3.03699488 10.60282059 -3.02050971 7.30143197 -3 4 C-2.34 3.67 -1.68 3.34 -1 3 C-0.67 2.01 -0.34 1.02 0 0 Z " fill="#F4D30B" transform="translate(4,5)"/>
<path d="M0 0 C4.43728151 -0.11586755 8.87417591 -0.18714058 13.3125 -0.25 C14.57513672 -0.28351562 15.83777344 -0.31703125 17.13867188 -0.3515625 C18.95141602 -0.37089844 18.95141602 -0.37089844 20.80078125 -0.390625 C21.91622314 -0.41157227 23.03166504 -0.43251953 24.1809082 -0.45410156 C27 0 27 0 28.86914062 1.63085938 C30.32471845 4.68028235 30.34073419 6.92145067 30.29296875 10.296875 C30.2784668 12.10478516 30.2784668 12.10478516 30.26367188 13.94921875 C30.23853516 15.20347656 30.21339844 16.45773438 30.1875 17.75 C30.16719727 19.65458984 30.16719727 19.65458984 30.14648438 21.59765625 C30.1111324 24.73219844 30.06178248 27.86588545 30 31 C29.67 31 29.34 31 29 31 C29 23.08 29 15.16 29 7 C26.69 7 24.38 7 22 7 C21.731875 7.78375 21.46375 8.5675 21.1875 9.375 C20 12 20 12 17 14 C13.121948 14.50583287 11.46675195 14.29425666 8.125 12.1875 C6 10 6 10 6 7 C4.02 7.33 2.04 7.66 0 8 C-0.33 16.25 -0.66 24.5 -1 33 C-1.66 32.67 -2.32 32.34 -3 32 C-3 22.76 -3 13.52 -3 4 C-2.34 3.67 -1.68 3.34 -1 3 C-0.67 2.01 -0.34 1.02 0 0 Z " fill="#FCDD4B" transform="translate(4,5)"/>
<path d="M0 0 C0.33 1.32 0.66 2.64 1 4 C0.195625 4.2475 -0.60875 4.495 -1.4375 4.75 C-4.171081 5.72238859 -4.171081 5.72238859 -4.8125 8.125 C-4.874375 8.74375 -4.93625 9.3625 -5 10 C-4.01 10 -3.02 10 -2 10 C-2 11.32 -2 12.64 -2 14 C-3.32 14.33 -4.64 14.66 -6 15 C-6.33 16.65 -6.66 18.3 -7 20 C-8.98 20 -10.96 20 -13 20 C-12.67 18.02 -12.34 16.04 -12 14 C-13.65 14 -15.3 14 -17 14 C-17 12.68 -17 11.36 -17 10 C-15.02 10 -13.04 10 -11 10 C-10.938125 9.0925 -10.87625 8.185 -10.8125 7.25 C-10 4 -10 4 -7.75 1.625 C-4.80867557 -0.11305534 -3.3450389 -0.38229016 0 0 Z " fill="#1180CA" transform="translate(30,18)"/>
<path d="M0 0 C10.23 0 20.46 0 31 0 C31 0.33 31 0.66 31 1 C28.69 1 26.38 1 24 1 C23.731875 1.78375 23.46375 2.5675 23.1875 3.375 C22 6 22 6 19 8 C15.121948 8.50583287 13.46675195 8.29425666 10.125 6.1875 C8 4 8 4 8 1 C6.02 1.33 4.04 1.66 2 2 C1.67 9.59 1.34 17.18 1 25 C0.67 25 0.34 25 0 25 C0 16.75 0 8.5 0 0 Z " fill="#FCE73C" transform="translate(2,11)"/>
<path d="M0 0 C8.25 0 16.5 0 25 0 C25 1.32 25 2.64 25 4 C16.09 4 7.18 4 -2 4 C-1.34 2.68 -0.68 1.36 0 0 Z " fill="#FAC301" transform="translate(6,6)"/>
<path d="M0 0 C2.31 0 4.62 0 7 0 C7 2.97 7 5.94 7 9 C6.01 8.34 5.02 7.68 4 7 C2.0103005 6.60986284 0.00980131 6.26797351 -2 6 C-1.34 4.02 -0.68 2.04 0 0 Z " fill="#F9E104" transform="translate(26,12)"/>
<path d="M0 0 C3.63 0 7.26 0 11 0 C10.67 1.65 10.34 3.3 10 5 C3.9453125 5.1953125 3.9453125 5.1953125 2 5 C1.34 4.34 0.68 3.68 0 3 C0 2.01 0 1.02 0 0 Z " fill="#FDE503" transform="translate(12,12)"/>
<path d="M0 0 C8.25 0 16.5 0 25 0 C25 0.33 25 0.66 25 1 C18.07 1 11.14 1 4 1 C4 1.66 4 2.32 4 3 C4.66 3.33 5.32 3.66 6 4 C3.36 4 0.72 4 -2 4 C-1.34 2.68 -0.68 1.36 0 0 Z " fill="#FED210" transform="translate(6,6)"/>
<path d="M0 0 C1.48168945 1.11254883 1.48168945 1.11254883 3 3 C3.34057617 5.8190918 3.34057617 5.8190918 3.29296875 9.19921875 C3.28330078 10.40771484 3.27363281 11.61621094 3.26367188 12.86132812 C3.23853516 14.12396484 3.21339844 15.38660156 3.1875 16.6875 C3.17396484 17.96173828 3.16042969 19.23597656 3.14648438 20.54882812 C3.11108199 23.69964057 3.0616979 26.84961045 3 30 C2.67 30 2.34 30 2 30 C2 21.75 2 13.5 2 5 C-0.31 5 -2.62 5 -5 5 C-5 4.67 -5 4.34 -5 4 C-3.35 4 -1.7 4 0 4 C0 2.68 0 1.36 0 0 Z " fill="#FDE96B" transform="translate(31,6)"/>
<path d="M0 0 C1.65 0 3.3 0 5 0 C5 0.66 5 1.32 5 2 C5.66 2.33 6.32 2.66 7 3 C4.36 3 1.72 3 -1 3 C-0.67 2.01 -0.34 1.02 0 0 Z " fill="#FDD000" transform="translate(5,7)"/>
</svg>
 