<svg width="16" height="19" viewBox="0 0 16 19" fill="none" xmlns="http://www.w3.org/2000/svg">
<path d="M15.625 9.4809C15.6256 9.71433 15.5657 9.94393 15.4513 10.1474C15.3368 10.3508 15.1717 10.5212 14.9719 10.6419L2.59 18.2164C2.38125 18.3443 2.14215 18.4141 1.89741 18.4186C1.65267 18.4231 1.41116 18.3622 1.19781 18.2422C0.986501 18.1241 0.810472 17.9518 0.687828 17.743C0.565185 17.5343 0.500353 17.2967 0.5 17.0546V1.90723C0.500353 1.66513 0.565185 1.42749 0.687828 1.21876C0.810472 1.01002 0.986501 0.837719 1.19781 0.71957C1.41116 0.599557 1.65267 0.538672 1.89741 0.543205C2.14215 0.547737 2.38125 0.617521 2.59 0.745351L14.9719 8.31988C15.1717 8.4406 15.3368 8.61097 15.4513 8.81442C15.5657 9.01786 15.6256 9.24747 15.625 9.4809Z" fill="white"/>
</svg>
