<svg width="86" height="61" viewBox="0 0 86 61" fill="none" xmlns="http://www.w3.org/2000/svg">
<path d="M43.2741 0.226562H43.7525C48.1708 0.242688 70.5576 0.403938 76.5938 2.02719C78.4185 2.52259 80.0813 3.48823 81.416 4.82761C82.7506 6.16698 83.7104 7.83318 84.1994 9.65969C84.7422 11.7022 85.1239 14.4058 85.3819 17.1954L85.4356 17.7544L85.5539 19.1519L85.5969 19.7109C85.9463 24.6237 85.9892 29.2247 85.9946 30.2298V30.6329C85.9892 31.6757 85.9409 36.5884 85.5539 41.7054L85.5109 42.2698L85.4625 42.8288C85.1937 45.9033 84.796 48.9563 84.1994 51.2031C83.7104 53.0296 82.7506 54.6958 81.416 56.0351C80.0813 57.3745 78.4185 58.3402 76.5938 58.8356C70.3587 60.5126 46.6604 60.6308 43.3762 60.6362H42.613C40.9521 60.6362 34.0829 60.6039 26.8804 60.3567L25.9666 60.3244L25.499 60.3029L24.5799 60.2653L23.6607 60.2277C17.6945 59.9643 12.0131 59.5397 9.3955 58.8302C7.57137 58.3353 5.909 57.3704 4.5744 56.032C3.2398 54.6937 2.27966 53.0286 1.78988 51.2031C1.19325 48.9617 0.7955 45.9033 0.52675 42.8288L0.48375 42.2644L0.44075 41.7054C0.173953 38.0634 0.0269573 34.4136 0 30.7619L0 30.1008C0.01075 28.9452 0.05375 24.9516 0.344 20.5441L0.381625 19.9904L0.39775 19.7109L0.44075 19.1519L0.559 17.7544L0.61275 17.1954C0.87075 14.4058 1.25237 11.6968 1.79525 9.65969C2.28422 7.83318 3.24398 6.16698 4.57864 4.82761C5.9133 3.48823 7.5761 2.52259 9.40088 2.02719C12.0185 1.32844 17.6999 0.898437 23.6661 0.629687L24.5799 0.592062L25.5044 0.559813L25.9666 0.543688L26.8857 0.506063C32.0012 0.341607 37.1187 0.250222 42.2367 0.231938L43.2741 0.226562ZM34.4 17.4803V43.3771L56.7439 30.4341L34.4 17.4803Z" fill="#FF1414"/>
</svg>
